<svg width="235" height="53" viewBox="0 0 235 53" fill="none" xmlns="http://www.w3.org/2000/svg">
<g clip-path="url(#clip0_1_40)">
<path d="M95.389 19.3342H95.3262L85.8292 4.1582H82.8587L85.5154 8.56959C88.4022 13.1921 91.2889 17.8567 94.1966 22.5003H96.4977C99.4472 17.7723 102.376 13.0443 105.346 8.33741H105.451V22.5003H108.108V4.1582H104.886L95.389 19.3342Z" fill="black"/>
<path d="M82.6286 22.5003H85.2853V10.8702L82.6286 6.43774V22.5003Z" fill="black"/>
<path d="M119.194 4.1582H116.559V22.5003H119.194V4.1582Z" fill="black"/>
<path d="M136.954 12.6009L134.507 12.0099C132.98 11.6299 129.424 10.8279 129.424 8.65382C129.424 6.92304 131.746 5.78325 134.57 5.78325C137.582 5.78325 139.778 7.02857 140.636 8.94932L143 8.12614C141.954 5.46665 138.732 3.77808 134.758 3.77808C130.783 3.77808 126.683 5.50886 126.683 8.80157C126.683 12.2842 131.118 13.424 133.44 13.9517L135.741 14.5005C138.042 15.0282 140.824 15.5136 140.824 17.6666C140.824 19.8195 137.812 20.896 135.155 20.896C132.059 20.896 129.277 19.6295 128.231 16.7801L125.784 17.5188C127.206 21.3814 131.306 22.9011 135.155 22.9011C139.799 22.9011 143.648 20.6849 143.648 17.3922C143.648 14.0995 139.611 13.2341 136.954 12.6009Z" fill="black"/>
<path d="M160.174 12.6009L157.727 12.0099C156.199 11.6299 152.643 10.8279 152.643 8.65382C152.643 6.92304 154.965 5.78325 157.789 5.78325C160.802 5.78325 162.998 7.02857 163.856 8.94932L166.24 8.12614C165.194 5.46665 161.973 3.77808 157.998 3.77808C154.024 3.77808 149.924 5.50886 149.924 8.80157C149.924 12.2842 154.359 13.424 156.681 13.9517L158.982 14.5005C161.283 15.0282 164.065 15.5136 164.065 17.6666C164.065 19.8195 161.053 20.896 158.396 20.896C155.3 20.896 152.518 19.6295 151.472 16.7801L149.024 17.5188C150.447 21.3814 154.547 22.9011 158.396 22.9011C163.04 22.9011 166.889 20.6849 166.889 17.3922C166.889 14.0995 162.852 13.2341 160.195 12.6009" fill="black"/>
<path d="M176.407 4.1582H173.771V22.5003H176.407V4.1582Z" fill="black"/>
<path d="M195.861 3.77808C189 3.77808 183.436 7.80954 183.436 13.3396C183.436 18.8697 189.084 22.88 195.861 22.88C202.639 22.88 208.266 18.7852 208.266 13.3396C208.266 7.89397 202.827 3.77808 195.861 3.77808ZM195.903 20.8537C190.694 20.8537 186.239 17.7299 186.239 13.3607C186.239 8.99154 190.694 5.82547 195.903 5.82547C201.112 5.82547 205.463 9.03375 205.463 13.3607C205.463 17.6877 201.091 20.8537 195.903 20.8537Z" fill="black"/>
<path d="M232.385 18.891H232.302C227.595 13.8675 222.491 8.61181 218.181 4.17931H215.357V4.85474L220.838 10.9336C224.645 14.8806 228.432 18.6799 232.155 22.5214H234.979V4.1582H232.364V18.8699L232.385 18.891Z" fill="black"/>
<path d="M215.357 22.5001H217.993V10.0047L215.357 7.0708V22.5001Z" fill="black"/>
<path d="M148.732 29.1067C141.87 29.1067 136.306 33.1382 136.306 38.6682C136.306 44.1983 141.954 48.2086 148.732 48.2086C155.509 48.2086 161.136 44.1139 161.136 38.6682C161.136 33.2226 155.697 29.1067 148.732 29.1067ZM148.752 46.1824C143.544 46.1824 139.088 43.0585 139.088 38.6893C139.088 34.3201 143.544 31.1541 148.752 31.1541C153.961 31.1541 158.312 34.3624 158.312 38.6893C158.312 43.0163 153.94 46.1824 148.752 46.1824Z" fill="black"/>
<path d="M183.226 40.8633C183.226 44.4515 180.883 46.2034 176.888 46.2034C172.893 46.2034 170.571 44.4304 170.571 40.8633V29.4866H167.935V41.0322C167.935 45.1692 170.759 48.2297 176.825 48.2297C183.456 48.2297 185.841 44.747 185.841 41.0322V29.4866H183.205V40.8633H183.226Z" fill="black"/>
<path d="M202.89 29.4867H194.104V47.8288H196.74V41.0323V38.5205V31.4708H202.451C205.714 31.4708 208.329 32.5894 208.329 35.1012C208.329 37.6129 205.923 38.6894 202.597 38.6894H197.849L199.71 40.7579H203.308C206.802 40.7579 211.048 39.196 211.048 35.0168C211.048 30.8375 206.99 29.4656 202.869 29.4656" fill="black"/>
<path d="M127.771 44.2193H127.75L124.361 40.4834L125.512 40.3778C125.847 40.3356 126.202 40.2934 126.516 40.1879C129.026 39.4069 130.762 37.6761 130.762 35.0589C130.762 31.0274 126.558 29.4866 122.583 29.4866H113.797V47.8287H116.433V44.3038V35.5865V31.4495H122.123C125.386 31.4495 128.001 32.6949 128.001 35.1433C128.001 37.0429 126.6 38.1405 124.445 38.5626L122.792 38.7526C122.625 38.7526 122.437 38.7526 122.269 38.7526H117.416L118.881 40.6945H121.621L128.106 47.8076H131.034C129.947 46.6045 128.859 45.4013 127.75 44.1982" fill="black"/>
<path d="M95.3681 40.42L104.279 40.3989V46.4356L104.321 47.8286H106.476V38.5415H95.3681V40.42Z" fill="black"/>
<path d="M93.841 46.1403C89.1552 46.1403 84.8251 43.8607 84.8251 38.5628C84.8251 33.6871 89.3435 30.8165 94.5941 30.8165C98.485 30.8165 101.811 32.4418 103.317 35.1224L105.744 34.2992C104.133 30.6688 99.4472 28.7058 94.615 28.7058C87.6491 28.7058 82.0011 32.5473 82.0011 38.5206C82.0011 44.1773 86.2476 48.2088 93.5063 48.2088C99.1544 48.2088 102.731 44.4306 102.731 44.4306V41.8133C102.731 41.8133 98.6732 46.1192 93.8829 46.1192" fill="black"/>
<path d="M15.0823 24.0621V51.5647L17.8018 50.0028V25.3919L59.8901 1.43528L57.3798 0L15.0823 24.0621Z" fill="black"/>
<path d="M59.8901 44.5361L47.5481 51.5647L50.0583 53L62.6095 45.8658V2.99723L59.8901 1.4353V44.5361Z" fill="black"/>
<path d="M44.8077 26.3628V50.0028L47.5481 51.5647V27.9247L44.8077 26.3628Z" fill="black"/>
<path d="M21.7763 36.5997V39.4703L44.8077 26.3628L42.2975 24.9275L21.7763 36.5997Z" fill="black"/>
<path d="M5.25058 0L2.71942 1.43528L25.0605 14.1629L27.5917 12.7065L5.25058 0Z" fill="black"/>
<path d="M0 2.99723V45.8658L12.5512 53L15.0823 51.5647L2.71942 44.5361V1.4353L0 2.99723Z" fill="black"/>
</g>
<defs>
<clipPath id="clip0_1_40">
<rect width="235" height="53" fill="white"/>
</clipPath>
</defs>
</svg>
