<svg width="166" height="62" viewBox="0 0 166 62" fill="none" xmlns="http://www.w3.org/2000/svg">
<g clip-path="url(#clip0_1_8)">
<path d="M34.1101 56.763C34.1101 56.1304 34.0226 55.568 33.8475 55.0584C33.6725 54.5488 33.4275 54.127 33.1125 53.7755C32.7975 53.424 32.4124 53.1604 31.9749 52.9671C31.5199 52.7738 31.0298 52.6859 30.4698 52.6859C29.9098 52.6859 29.4197 52.7738 28.9822 52.9671C28.5271 53.1604 28.1596 53.424 27.8271 53.7755C27.5121 54.127 27.2671 54.5488 27.092 55.0584C26.917 55.568 26.8295 56.1304 26.8295 56.763C26.8295 57.3957 26.917 57.9581 27.092 58.4677C27.2671 58.9773 27.5121 59.3991 27.8271 59.733C28.1421 60.0845 28.5271 60.3481 28.9822 60.5238C29.4372 60.7171 29.9273 60.805 30.4698 60.805C31.0123 60.805 31.5199 60.7171 31.9749 60.5238C32.4299 60.3481 32.7975 60.0669 33.1125 59.733C33.4275 59.3815 33.6725 58.9598 33.8475 58.4677C34.0226 57.9756 34.1101 57.3957 34.1101 56.763ZM35.5452 56.763C35.5452 57.5363 35.4227 58.2392 35.1776 58.8895C34.9326 59.5397 34.5826 60.0845 34.1451 60.559C33.7075 61.0159 33.165 61.3849 32.5525 61.631C31.9224 61.8946 31.2399 62.0176 30.4873 62.0176C29.7347 62.0176 29.0522 61.8946 28.4221 61.631C27.8096 61.3674 27.2671 61.0159 26.8295 60.559C26.392 60.102 26.042 59.5397 25.7969 58.8895C25.5519 58.2392 25.4294 57.5363 25.4294 56.763C25.4294 55.9898 25.5519 55.2869 25.7969 54.6366C26.042 53.9864 26.3745 53.4416 26.8295 52.9671C27.2671 52.4926 27.8096 52.1412 28.4221 51.8776C29.0347 51.614 29.7347 51.4909 30.4873 51.4909C31.2399 51.4909 31.9224 51.614 32.5525 51.8776C33.1825 52.1412 33.7075 52.4926 34.1451 52.9671C34.5826 53.4416 34.9326 53.9864 35.1776 54.6366C35.4227 55.2869 35.5452 55.9898 35.5452 56.763Z" fill="white"/>
<path d="M42.7557 51.6491C42.7557 51.6491 42.8782 51.737 42.9657 51.8424L48.8987 59.5924C48.8987 59.4694 48.8812 59.3464 48.8637 59.2234C48.8637 59.1003 48.8637 58.9949 48.8637 58.8895V51.5964H50.0713V61.8946H49.3712C49.2662 61.8946 49.1612 61.877 49.0912 61.8418C49.0212 61.8067 48.9512 61.7364 48.8812 61.6485L42.9482 53.8985C42.9482 54.0215 42.9482 54.1446 42.9657 54.25C42.9657 54.373 42.9657 54.4785 42.9657 54.5663V61.8946H41.7581V51.5964H42.4757C42.5982 51.5964 42.6857 51.5964 42.7557 51.6491Z" fill="white"/>
<path d="M65.6474 58.0811H69.4802L67.8701 53.8985C67.7651 53.6349 67.6601 53.3186 67.5551 52.932C67.5026 53.1253 67.4501 53.301 67.3976 53.4768C67.3451 53.6349 67.2926 53.7931 67.2576 53.9161L65.6474 58.0986V58.0811ZM72.3679 61.8946H71.3004C71.1779 61.8946 71.0729 61.8594 71.0028 61.8067C70.9328 61.7364 70.8628 61.6661 70.8278 61.5782L69.8653 59.1003H65.2624L64.2998 61.5782C64.2998 61.5782 64.2123 61.7364 64.1248 61.8067C64.0373 61.877 63.9498 61.9121 63.8273 61.9121H62.7597L66.855 51.614H68.2726L72.3679 61.9121V61.8946Z" fill="white"/>
<path d="M79.4035 57.2024V60.7874H81.6261C82.0287 60.7874 82.3612 60.7347 82.6412 60.6468C82.9212 60.559 83.1663 60.4359 83.3413 60.2602C83.5163 60.102 83.6563 59.8912 83.7438 59.6803C83.8313 59.4518 83.8663 59.2058 83.8663 58.9246C83.8663 58.3974 83.6738 57.9756 83.3063 57.6593C82.9387 57.343 82.3612 57.2024 81.6086 57.2024H79.4035ZM79.4035 56.2183H81.2411C81.6261 56.2183 81.9762 56.1831 82.2562 56.0952C82.5362 56.0074 82.7812 55.8844 82.9737 55.7438C83.1663 55.5856 83.3063 55.4099 83.3938 55.1814C83.4813 54.9705 83.5338 54.7245 83.5338 54.4609C83.5338 53.8634 83.3588 53.4065 82.9912 53.1253C82.6237 52.8441 82.0637 52.7035 81.3111 52.7035H79.421V56.2183H79.4035ZM78.0209 61.8946V51.5964H81.2936C81.9237 51.5964 82.4662 51.6667 82.9212 51.7897C83.3763 51.9127 83.7438 52.0884 84.0413 52.3169C84.3388 52.5454 84.5489 52.8265 84.6889 53.1604C84.8289 53.4943 84.8989 53.8634 84.8989 54.2851C84.8989 54.5312 84.8639 54.7772 84.7764 55.0232C84.7064 55.2517 84.5839 55.4802 84.4264 55.6735C84.2688 55.8668 84.0588 56.0601 83.8313 56.2183C83.5863 56.3764 83.3063 56.4994 82.9912 56.6049C83.7438 56.7455 84.3038 57.0266 84.6889 57.4133C85.0739 57.7999 85.2664 58.3271 85.2664 58.9598C85.2664 59.3991 85.1789 59.7857 85.0214 60.1548C84.8639 60.5062 84.6364 60.8226 84.3213 61.0862C84.0063 61.3498 83.6388 61.5431 83.1838 61.6837C82.7287 61.8243 82.2212 61.8946 81.6611 61.8946H78.0384H78.0209Z" fill="white"/>
<path d="M92.9845 57.2024V60.7874H95.2072C95.6097 60.7874 95.9422 60.7347 96.2223 60.6468C96.5023 60.559 96.7473 60.4359 96.9223 60.2602C97.0973 60.102 97.2373 59.8912 97.3248 59.6803C97.4123 59.4518 97.4474 59.2058 97.4474 58.9246C97.4474 58.3974 97.2548 57.9756 96.8873 57.6593C96.5198 57.343 95.9422 57.2024 95.1897 57.2024H92.9845ZM92.9845 56.2183H94.8222C95.2072 56.2183 95.5572 56.1831 95.8372 56.0952C96.1172 56.0074 96.3623 55.8844 96.5548 55.7438C96.7473 55.5856 96.8873 55.4099 96.9748 55.1814C97.0623 54.9705 97.1148 54.7245 97.1148 54.4609C97.1148 53.8634 96.9398 53.4065 96.5723 53.1253C96.2048 52.8441 95.6447 52.7035 94.8922 52.7035H93.002V56.2183H92.9845ZM91.5844 61.8946V51.5964H94.8572C95.4872 51.5964 96.0297 51.6667 96.4848 51.7897C96.9398 51.9127 97.3073 52.0884 97.6049 52.3169C97.9024 52.5454 98.1124 52.8265 98.2524 53.1604C98.3924 53.4943 98.4624 53.8634 98.4624 54.2851C98.4624 54.5312 98.4274 54.7772 98.3399 55.0232C98.2699 55.2517 98.1474 55.4802 97.9899 55.6735C97.8324 55.8668 97.6224 56.0601 97.3948 56.2183C97.1498 56.3764 96.8698 56.4994 96.5548 56.6049C97.3073 56.7455 97.8674 57.0266 98.2524 57.4133C98.6374 57.7999 98.83 58.3271 98.83 58.9598C98.83 59.3991 98.7425 59.7857 98.5849 60.1548C98.4274 60.5062 98.1999 60.8226 97.8849 61.0862C97.5699 61.3498 97.2023 61.5431 96.7473 61.6837C96.2923 61.8243 95.7847 61.8946 95.2247 61.8946H91.6019H91.5844Z" fill="white"/>
<path d="M113.181 56.763C113.181 56.1304 113.094 55.568 112.918 55.0584C112.743 54.5488 112.498 54.127 112.183 53.7755C111.868 53.424 111.483 53.1604 111.046 52.9671C110.591 52.7738 110.101 52.6859 109.541 52.6859C108.981 52.6859 108.491 52.7738 108.053 52.9671C107.598 53.1604 107.231 53.424 106.898 53.7755C106.583 54.127 106.338 54.5488 106.163 55.0584C105.988 55.568 105.9 56.1304 105.9 56.763C105.9 57.3957 105.988 57.9581 106.163 58.4677C106.338 58.9773 106.583 59.3991 106.898 59.733C107.213 60.0845 107.598 60.3481 108.053 60.5238C108.508 60.7171 108.998 60.805 109.541 60.805C110.083 60.805 110.591 60.7171 111.046 60.5238C111.501 60.3481 111.868 60.0669 112.183 59.733C112.498 59.3815 112.743 58.9598 112.918 58.4677C113.094 57.9756 113.181 57.3957 113.181 56.763ZM114.616 56.763C114.616 57.5363 114.494 58.2392 114.249 58.8895C114.004 59.5397 113.654 60.0845 113.216 60.559C112.778 61.0159 112.236 61.3849 111.623 61.631C110.993 61.8946 110.311 62.0176 109.558 62.0176C108.806 62.0176 108.123 61.8946 107.493 61.631C106.881 61.3674 106.338 61.0159 105.9 60.559C105.463 60.102 105.113 59.5397 104.868 58.8895C104.623 58.2392 104.5 57.5363 104.5 56.763C104.5 55.9898 104.623 55.2869 104.868 54.6366C105.113 53.9864 105.445 53.4416 105.9 52.9671C106.338 52.4926 106.881 52.1412 107.493 51.8776C108.106 51.614 108.806 51.4909 109.558 51.4909C110.311 51.4909 110.993 51.614 111.623 51.8776C112.253 52.1412 112.778 52.4926 113.216 52.9671C113.654 53.4416 114.004 53.9864 114.249 54.6366C114.494 55.2869 114.616 55.9898 114.616 56.763Z" fill="white"/>
<path d="M119.359 51.614V52.7738H122.684V61.8946H124.084V52.7738H127.392V51.614H119.359Z" fill="white"/>
<path d="M132.607 51.614V52.7738H135.933V61.8946H137.315V52.7738H140.623V51.614H132.607Z" fill="white"/>
<path d="M46.501 0V35.78H70.0228V33.7942H51.7339V0H46.501Z" fill="white"/>
<path d="M114.336 0L100.178 29.2075L86.019 0H80.4711V35.78H82.4662V4.09467L97.8149 35.78H99.11L114.266 4.51644V35.78H119.499V0H114.336Z" fill="white"/>
<path d="M16.3287 6.50227L23.6968 21.6859H8.96067L16.3287 6.50227ZM13.161 0L15.2611 4.32313L0 35.78H2.10016L8.20812 23.2149H24.4143L30.5048 35.78H36.0527L18.7089 0H13.161Z" fill="white"/>
<path d="M146.259 6.50227L153.627 21.6859H138.89L146.259 6.50227ZM143.108 0L145.208 4.32313L129.947 35.78H132.047L138.155 23.2149H154.362L160.452 35.78H166L148.639 0H143.091H143.108Z" fill="white"/>
</g>
<defs>
<clipPath id="clip0_1_8">
<rect width="166" height="62" fill="white"/>
</clipPath>
</defs>
</svg>
